# Blender 5.1.0
# www.blender.org
mtllib Map_Snow.mtl
o Cube
v -44.032722 -0.408919 44.032722
v -42.164886 0.408919 42.164886
v -44.032722 -0.408919 -44.032722
v -42.164886 0.408919 -42.164886
v 44.032722 -0.408919 44.032722
v 42.164886 0.408919 42.164886
v 44.032722 -0.408919 -44.032722
v 42.164886 0.408919 -42.164886
v -44.032722 0.408919 44.032722
v -44.032722 0.408919 -44.032722
v 44.032722 0.408919 -44.032722
v 44.032722 0.408919 44.032722
v -44.032722 6.954239 44.032722
v -44.032722 6.954239 -44.032722
v 44.032722 6.954239 -44.032722
v 44.032722 6.954239 44.032722
v -42.164886 6.954239 42.164886
v -42.164886 6.954239 -42.164886
v 42.164886 6.954239 -42.164886
v 42.164886 6.954239 42.164886
vn -1.0000 -0.0000 -0.0000
vn -0.0000 -0.0000 -1.0000
vn 1.0000 -0.0000 -0.0000
vn -0.0000 -0.0000 1.0000
vn -0.0000 -1.0000 -0.0000
vn -0.0000 1.0000 -0.0000
vt 3.674801 7.646193
vt 3.698632 -6.765889
vt 3.698632 7.646193
vt 3.889348 7.646193
vt 3.913179 -6.765889
vt 3.913179 7.646193
vt 4.103894 7.646193
vt 4.127724 -6.765889
vt 4.127724 7.646193
vt 4.318439 7.646193
vt 4.342268 -6.765889
vt 4.342268 7.646193
vt -1.539111 7.646193
vt -4.105134 -6.765889
vt -1.539110 -6.765889
vt 3.484086 7.034843
vt 1.026912 -6.765889
vt 3.484086 -6.765888
vt 4.318439 -6.765889
vt 3.484086 -6.765889
vt 3.674803 -6.765889
vt 4.532987 7.034843
vt 4.342269 -6.765888
vt 4.532987 -6.765888
vt 4.723701 7.034843
vt 4.723701 -6.765888
vt -1.484687 7.340518
vt 1.026911 7.646193
vt 0.972487 7.340518
vt 1.026911 -6.765889
vt 0.972487 -6.460214
vt -1.539110 -6.765889
vt -1.484687 -6.460214
vt 3.889348 -6.765889
vt 4.914416 7.034843
vt 4.914416 -6.765888
vt 5.105134 7.034843
vt 4.914417 -6.765889
vt 5.105134 -6.765889
vt 4.103894 -6.765889
vt -4.105134 7.646193
vt 1.026912 7.034843
vt 3.484086 7.646193
vt 4.342269 7.034843
vt 3.698632 7.646193
vt 4.914417 7.034843
s 0
usemtl Material.001
f 4/16/6 6/17/6 8/18/6
f 4/16/6 2/42/6 6/17/6
usemtl Material.002
f 9/1/1 3/2/1 1/3/1
f 10/4/2 7/5/2 3/6/2
f 11/7/3 5/8/3 7/9/3
f 12/10/4 1/11/4 5/12/4
f 7/13/5 1/14/5 3/15/5
f 12/10/4 13/8/4 9/19/4
f 9/1/1 14/20/1 10/21/1
f 8/22/4 18/23/4 4/24/4
f 2/25/2 20/24/2 6/26/2
f 17/27/6 14/28/6 13/13/6
f 18/29/6 15/30/6 14/28/6
f 19/31/6 16/32/6 15/30/6
f 20/33/6 13/13/6 16/32/6
f 10/4/2 15/2/2 11/34/2
f 6/35/1 19/26/1 8/36/1
f 4/37/3 17/38/3 2/39/3
f 11/7/3 16/5/3 12/40/3
f 9/1/1 10/21/1 3/2/1
f 10/4/2 11/34/2 7/5/2
f 11/7/3 12/40/3 5/8/3
f 12/10/4 9/19/4 1/11/4
f 7/13/5 5/41/5 1/14/5
f 12/10/4 16/9/4 13/8/4
f 9/1/1 13/43/1 14/20/1
f 8/22/4 19/44/4 18/23/4
f 2/25/2 17/22/2 20/24/2
f 17/27/6 18/29/6 14/28/6
f 18/29/6 19/31/6 15/30/6
f 19/31/6 20/33/6 16/32/6
f 20/33/6 17/27/6 13/13/6
f 10/4/2 14/45/2 15/2/2
f 6/35/1 20/25/1 19/26/1
f 4/37/3 18/46/3 17/38/3
f 11/7/3 15/6/3 16/5/3
